Ground reaction force (.MOT) by Lee-Son Toolkit
nRows=120
nColumns=19

name S4_T_02_fixed_grf.mot
datacolumns 19
datarows 120
range 7.5 7.619
endheader
time	1_ground_force_vx	1_ground_force_vy	1_ground_force_vz	1_ground_force_px	1_ground_force_py	1_ground_force_pz	2_ground_force_vx	2_ground_force_vy	2_ground_force_vz	2_ground_force_px	2_ground_force_py	2_ground_force_pz	1_ground_torque_x	1_ground_torque_y	1_ground_torque_z	2_ground_torque_x	2_ground_torque_y	2_ground_torque_z
7.5	0	0	0	0	0	0	2.28243	-33.2463	7.42721	0.0933204	0	0.0947072	0	0	0	0	-1.11305	0
7.501	0	0	0	0	0	0	2.45932	-32.7279	7.46533	0.0916014	0	0.0943074	0	0	0	0	-1.16497	0
7.502	0	0	0	0	0	0	2.45926	-33.9371	7.7753	0.0900709	0	0.0911805	0	0	0	0	-1.16799	0
7.503	0	0	0	0	0	0	2.4175	-32.8988	7.68902	0.0947036	0	0.0941724	0	0	0	0	-1.1171	0
7.504	0	0	0	0	0	0	2.45866	-33.4181	7.68586	0.0897206	0	0.0932634	0	0	0	0	-1.18335	0
7.505	0	0	0	0	0	0	2.33041	-32.0364	7.38203	0.0991414	0	0.0989483	0	0	0	0	-1.1159	0
7.506	0	0	0	0	0	0	2.45934	-32.8989	7.64233	0.0911264	0	0.0947835	0	0	0	0	-1.16249	0
7.507	0	0	0	0	0	0	2.4152	-32.7269	7.51129	0.0922478	0	0.0960548	0	0	0	0	-1.15575	0
7.508	0	0	0	0	0	0	2.32536	-33.2441	7.55943	0.0909582	0	0.0951121	0	0	0	0	-1.10546	0
7.509	0	0	0	0	0	0	2.5043	-32.9003	7.59657	0.0916506	0	0.0930554	0	0	0	0	-1.17193	0
7.51	0	0	0	0	0	0	2.50326	-33.0762	7.46439	0.0911441	0	0.0974616	0	0	0	0	-1.25113	0
7.511	0	0	0	0	0	0	2.19287	-33.5865	7.77874	0.0907604	0	0.0938695	0	0	0	0	-1.11668	0
7.512	0	0	0	0	0	0	2.36982	-33.419	7.5113	0.0904159	0	0.092908	0	0	0	0	-1.1578	0
7.513	0	0	0	0	0	0	2.54944	-32.7282	7.59872	0.0932526	0	0.095352	0	0	0	0	-1.16055	0
7.514	0	0	0	0	0	0	2.41597	-32.7267	7.55712	0.0934306	0	0.096612	0	0	0	0	-1.13522	0
7.515	0	0	0	0	0	0	2.32304	-34.1097	7.59988	0.0869563	0	0.0932068	0	0	0	0	-1.18954	0
7.516	0	0	0	0	0	0	2.50379	-33.2469	7.59903	0.09129	0	0.0938688	0	0	0	0	-1.16719	0
7.517	0	0	0	0	0	0	2.41485	-33.0727	7.59855	0.0912794	0	0.0961237	0	0	0	0	-1.19073	0
7.518	0	0	0	0	0	0	2.41678	-33.7643	7.73307	0.0928771	0	0.0899881	0	0	0	0	-1.11724	0
7.519	0	0	0	0	0	0	2.59189	-33.2479	7.59961	0.0906008	0	0.0950405	0	0	0	0	-1.17445	0
7.52	0	0	0	0	0	0	2.68132	-33.2534	7.33398	0.0922094	0	0.0947892	0	0	0	0	-1.21241	0
7.521	0	0	0	0	0	0	2.32731	-33.594	7.4256	0.0934497	0	0.092577	0	0	0	0	-1.13869	0
7.522	0	0	0	0	0	0	2.37186	-32.3766	7.77403	0.0926825	0	0.0967287	0	0	0	0	-1.1527	0
7.523	0	0	0	0	0	0	2.23582	-33.2431	7.55766	0.0898902	0	0.0968605	0	0	0	0	-1.15313	0
7.524	0	0	0	0	0	0	2.37131	-32.7277	7.42504	0.0934877	0	0.0961825	0	0	0	0	-1.13278	0
7.525	0	0	0	0	0	0	2.50476	-32.8986	7.73126	0.0922484	0	0.0940909	0	0	0	0	-1.13981	0
7.526	0	0	0	0	0	0	2.41377	-33.9394	7.51152	0.0895619	0	0.0909245	0	0	0	0	-1.16364	0
7.527	0	0	0	0	0	0	2.23817	-32.7225	7.68789	0.0924702	0	0.09703	0	0	0	0	-1.14969	0
7.528	0	0	0	0	0	0	2.59354	-33.4247	7.4222	0.0930025	0	0.093034	0	0	0	0	-1.19494	0
7.529	0	0	0	0	0	0	2.54808	-33.0756	7.51391	0.0922909	0	0.0974352	0	0	0	0	-1.16224	0
7.53	0	0	0	0	0	0	2.3251	-32.8983	7.50712	0.0895287	0	0.0931444	0	0	0	0	-1.18795	0
7.531	0	0	0	0	0	0	2.36911	-33.42	7.42307	0.0898359	0	0.0935965	0	0	0	0	-1.17131	0
7.532	0	0	0	0	0	0	2.41601	-33.2486	7.42587	0.0937224	0	0.0947055	0	0	0	0	-1.14082	0
7.533	0	0	0	0	0	0	2.549	-32.7301	7.46337	0.0926429	0	0.0949055	0	0	0	0	-1.21208	0
7.534	0	0	0	0	0	0	2.19199	-33.0683	7.60223	0.0904268	0	0.0955396	0	0	0	0	-1.11158	0
7.535	0	0	0	0	0	0	2.28065	-33.5907	7.55659	0.0900591	0	0.0947098	0	0	0	0	-1.16962	0
7.536	0	0	0	0	0	0	2.32633	-33.0727	7.51119	0.0919768	0	0.0956513	0	0	0	0	-1.17499	0
7.537	0	0	0	0	0	0	2.41481	-33.4189	7.59907	0.0909309	0	0.0933866	0	0	0	0	-1.16927	0
7.538	0	0	0	0	0	0	2.28126	-32.7239	7.55359	0.0906517	0	0.0947863	0	0	0	0	-1.15706	0
7.539	0	0	0	0	0	0	2.28255	-32.7256	7.51431	0.0935957	0	0.0984646	0	0	0	0	-1.13777	0
7.54	0	0	0	0	0	0	2.63657	-33.5971	7.4653	0.0907586	0	0.0919045	0	0	0	0	-1.19968	0
7.541	0	0	0	0	0	0	2.45895	-32.8987	7.64196	0.0905408	0	0.0947775	0	0	0	0	-1.16686	0
7.542	0	0	0	0	0	0	2.37254	-32.5546	7.46587	0.0945524	0	0.0954276	0	0	0	0	-1.16439	0
7.543	0	0	0	0	0	0	2.37106	-33.0726	7.5571	0.0925165	0	0.0956071	0	0	0	0	-1.14426	0
7.544	0	0	0	0	0	0	2.45988	-32.9012	7.5128	0.0928815	0	0.0967542	0	0	0	0	-1.1568	0
7.545	0	0	0	0	0	0	2.46096	-32.901	7.55685	0.0940552	0	0.0955207	0	0	0	0	-1.1414	0
7.546	0	0	0	0	0	0	2.41443	-32.7254	7.59697	0.0904768	0	0.0953238	0	0	0	0	-1.17728	0
7.547	0	0	0	0	0	0	2.46216	-32.5531	7.73337	0.0956235	0	0.0993134	0	0	0	0	-1.15764	0
7.548	0	0	0	0	0	0	2.36866	-32.897	7.59648	0.0883153	0	0.0936224	0	0	0	0	-1.16742	0
7.549	0	0	0	0	0	0	2.23846	-32.9006	7.3787	0.0937273	0	0.0963264	0	0	0	0	-1.1852	0
7.55	0	0	0	0	0	0	2.41452	-33.593	7.55993	0.0916233	0	0.0964785	0	0	0	0	-1.14763	0
7.551	0	0	0	0	0	0	2.45958	-33.0712	7.73155	0.0912404	0	0.0947798	0	0	0	0	-1.15357	0
7.552	0	0	0	0	0	0	2.50639	-32.3811	7.69065	0.0960722	0	0.101712	0	0	0	0	-1.15938	0
7.553	0	0	0	0	0	0	2.14948	-33.5918	7.42474	0.0930827	0	0.0937344	0	0	0	0	-1.16284	0
7.554	0	0	0	0	0	0	2.23467	-33.5898	7.514	0.0884038	0	0.0959192	0	0	0	0	-1.15687	0
7.555	0	0	0	0	0	0	2.46029	-33.0717	7.72947	0.0918115	0	0.0935955	0	0	0	0	-1.17361	0
7.556	0	0	0	0	0	0	2.28061	-33.2418	7.68689	0.0892567	0	0.0937423	0	0	0	0	-1.15325	0
7.557	0	0	0	0	0	0	2.19569	-32.8955	7.68751	0.0944008	0	0.0917891	0	0	0	0	-1.10267	0
7.558	0	0	0	0	0	0	2.72603	-33.0765	7.6413	0.0914714	0	0.0948838	0	0	0	0	-1.20347	0
7.559	0	0	0	0	0	0	2.68152	-33.422	7.68943	0.0917523	0	0.0962149	0	0	0	0	-1.17811	0
7.56	0	0	0	0	0	0	2.45742	-33.94	7.51528	0.0895119	0	0.0949667	0	0	0	0	-1.15892	0
7.561	0	0	0	0	0	0	2.36963	-33.7617	7.81888	0.0889228	0	0.0927339	0	0	0	0	-1.17703	0
7.562	0	0	0	0	0	0	2.59043	-33.2477	7.55263	0.088278	0	0.0938911	0	0	0	0	-1.20186	0
7.563	0	0	0	0	0	0	2.23693	-33.7611	7.68714	0.0896741	0	0.089431	0	0	0	0	-1.12813	0
7.564	0	0	0	0	0	0	2.77078	-32.5595	7.46527	0.092862	0	0.0960114	0	0	0	0	-1.18973	0
7.565	0	0	0	0	0	0	2.32903	-32.0346	7.46548	0.0961216	0	0.097574	0	0	0	0	-1.16243	0
7.566	0	0	0	0	0	0	2.41599	-32.899	7.64448	0.0929396	0	0.0959934	0	0	0	0	-1.14727	0
7.567	0	0	0	0	0	0	2.41605	-33.0716	7.647	0.0930673	0	0.0937356	0	0	0	0	-1.08748	0
7.568	0	0	0	0	0	0	2.50223	-34.4595	7.59954	0.0886736	0	0.0900277	0	0	0	0	-1.18621	0
7.569	0	0	0	0	0	0	2.54898	-33.2476	7.64345	0.0923851	0	0.0949993	0	0	0	0	-1.17977	0
7.57	0	0	0	0	0	0	2.1468	-33.2388	7.73146	0.088272	0	0.0936816	0	0	0	0	-1.13513	0
7.571	0	0	0	0	0	0	2.54848	-33.4196	7.68506	0.0907672	0	0.0909305	0	0	0	0	-1.16957	0
7.572	0	0	0	0	0	0	2.23745	-32.8939	7.73489	0.0914394	0	0.0946916	0	0	0	0	-1.07691	0
7.573	0	0	0	0	0	0	2.23818	-33.2461	7.37935	0.09279	0	0.0912184	0	0	0	0	-1.12782	0
7.574	0	0	0	0	0	0	2.41531	-32.7274	7.50955	0.0922308	0	0.0966453	0	0	0	0	-1.19306	0
7.575	0	0	0	0	0	0	2.54801	-32.9038	7.37931	0.0921821	0	0.095722	0	0	0	0	-1.1713	0
7.576	0	0	0	0	0	0	2.50261	-33.5955	7.42375	0.0903579	0	0.0937089	0	0	0	0	-1.18023	0
7.577	0	0	0	0	0	0	2.50331	-33.2476	7.55064	0.0901097	0	0.0927234	0	0	0	0	-1.22221	0
7.578	0	0	0	0	0	0	2.32857	-33.5926	7.60156	0.0945861	0	0.0935317	0	0	0	0	-1.15186	0
7.579	0	0	0	0	0	0	2.59298	-33.5974	7.46223	0.091364	0	0.0913172	0	0	0	0	-1.24367	0
7.58	0	0	0	0	0	0	2.50391	-32.5529	7.64144	0.0914345	0	0.0957769	0	0	0	0	-1.16691	0
7.581	0	0	0	0	0	0	2.46002	-32.9041	7.29137	0.093465	0	0.0946559	0	0	0	0	-1.15927	0
7.582	0	0	0	0	0	0	2.19072	-34.2843	7.42278	0.088356	0	0.0918234	0	0	0	0	-1.20614	0
7.583	0	0	0	0	0	0	2.41536	-33.5943	7.51168	0.0921722	0	0.0947776	0	0	0	0	-1.19783	0
7.584	0	0	0	0	0	0	2.0195	-33.2403	7.68823	0.0959659	0	0.0896865	0	0	0	0	-1.0885	0
7.585	0	0	0	0	0	0	2.41526	-33.9373	7.77765	0.0912513	0	0.0946522	0	0	0	0	-1.18029	0
7.586	0	0	0	0	0	0	2.50382	-33.0707	7.77495	0.0906121	0	0.0929451	0	0	0	0	-1.13659	0
7.587	0	0	0	0	0	0	2.237	-32.3764	7.59796	0.0910684	0	0.0975447	0	0	0	0	-1.16043	0
7.588	0	0	0	0	0	0	2.45926	-32.5515	7.68542	0.0909018	0	0.0957166	0	0	0	0	-1.16251	0
7.589	0	0	0	0	0	0	2.7262	-33.0764	7.64047	0.0914722	0	0.0936995	0	0	0	0	-1.20055	0
7.59	0	0	0	0	0	0	2.54906	-33.5936	7.68744	0.0920201	0	0.0928133	0	0	0	0	-1.17329	0
7.591	0	0	0	0	0	0	2.45975	-32.7292	7.42251	0.0927673	0	0.0967644	0	0	0	0	-1.18381	0
7.592	0	0	0	0	0	0	2.5024	-33.4203	7.54923	0.0884963	0	0.0910629	0	0	0	0	-1.2303	0
7.593	0	0	0	0	0	0	2.23716	-33.763	7.60059	0.0908025	0	0.0924467	0	0	0	0	-1.15139	0
7.594	0	0	0	0	0	0	2.23826	-33.0723	7.46552	0.0926643	0	0.0939339	0	0	0	0	-1.17999	0
7.595	0	0	0	0	0	0	2.54539	-33.7695	7.37778	0.0881231	0	0.0938431	0	0	0	0	-1.22259	0
7.596	0	0	0	0	0	0	2.41294	-33.2481	7.33286	0.0890804	0	0.0929978	0	0	0	0	-1.18756	0
7.597	0	0	0	0	0	0	2.50276	-33.5955	7.46333	0.089758	0	0.0930527	0	0	0	0	-1.24207	0
7.598	0	0	0	0	0	0	2.37394	-32.2038	7.77532	0.0955823	0	0.0948426	0	0	0	0	-1.09986	0
7.599	0	0	0	0	0	0	2.32591	-32.898	7.59617	0.0906892	0	0.0954218	0	0	0	0	-1.20315	0
7.6	0	0	0	0	0	0	2.46039	-33.4229	7.42593	0.093754	0	0.0953914	0	0	0	0	-1.16416	0
7.601	0	0	0	0	0	0	2.37179	-32.8991	7.59864	0.0929876	0	0.0948551	0	0	0	0	-1.16223	0
7.602	0	0	0	0	0	0	2.36941	-32.8987	7.55121	0.0894638	0	0.0948702	0	0	0	0	-1.21029	0
7.603	0	0	0	0	0	0	2.23678	-33.5905	7.55609	0.0906804	0	0.094713	0	0	0	0	-1.17875	0
7.604	0	0	0	0	0	0	2.46261	-32.8994	7.73128	0.0952217	0	0.0935209	0	0	0	0	-1.13879	0
7.605	0	0	0	0	0	0	2.36975	-33.5884	7.77646	0.089395	0	0.0921055	0	0	0	0	-1.13122	0
7.606	0	0	0	0	0	0	2.4151	-33.2459	7.55838	0.0920012	0	0.0939412	0	0	0	0	-1.11275	0
7.607	0	0	0	0	0	0	2.5922	-32.9006	7.68683	0.0909466	0	0.0976974	0	0	0	0	-1.19733	0
7.608	0	0	0	0	0	0	2.45927	-33.0722	7.64112	0.0906519	0	0.0931047	0	0	0	0	-1.17122	0
7.609	0	0	0	0	0	0	2.50476	-32.5523	7.72806	0.0920174	0	0.0950642	0	0	0	0	-1.1799	0
7.61	0	0	0	0	0	0	2.59282	-33.0766	7.51071	0.0922186	0	0.0962418	0	0	0	0	-1.20029	0
7.611	0	0	0	0	0	0	2.32835	-32.7253	7.60428	0.0953211	0	0.0971798	0	0	0	0	-1.09164	0
7.612	0	0	0	0	0	0	2.41569	-33.0746	7.51167	0.093019	0	0.0974333	0	0	0	0	-1.19767	0
7.613	0	0	0	0	0	0	2.45884	-33.4187	7.64317	0.0903038	0	0.0933273	0	0	0	0	-1.16508	0
7.614	0	0	0	0	0	0	2.06093	-32.5507	7.42262	0.0937612	0	0.0972811	0	0	0	0	-1.16559	0
7.615	0	0	0	0	0	0	2.59238	-33.7715	7.38111	0.0920651	0	0.0944646	0	0	0	0	-1.19084	0
7.616	0	0	0	0	0	0	2.45798	-33.5923	7.60192	0.089849	0	0.0952398	0	0	0	0	-1.15846	0
7.617	0	0	0	0	0	0	2.41402	-33.5931	7.51286	0.0904721	0	0.0941866	0	0	0	0	-1.16416	0
7.618	0	0	0	0	0	0	2.23969	-32.8974	7.60253	0.0949324	0	0.0948847	0	0	0	0	-1.09916	0
7.619	0	0	0	0	0	0	2.50328	-33.075	7.5508	0.0905568	0	0.0967503	0	0	0	0	-1.26392	0
